<svg width="140" height="46" viewBox="0 0 140 46" fill="none" xmlns="http://www.w3.org/2000/svg">
<path d="M35.4071 18.0987C36.7894 18.0987 37.9529 18.1881 38.9025 18.362C39.8472 18.5358 40.6378 18.7643 41.2643 19.0474C41.8908 19.3305 42.383 19.6484 42.7311 20.0109C43.0791 20.3735 43.3427 20.7411 43.5167 21.1185C43.6907 21.491 43.7951 21.8685 43.8299 22.241C43.8647 22.6135 43.8846 22.9413 43.8846 23.2244V37.2754H39.7627L39.0666 35.4824C38.3158 36.0684 37.4855 36.5105 36.5706 36.8184C35.6557 37.1214 34.7558 37.2754 33.8608 37.2754C33.0404 37.2754 32.2449 37.1512 31.4692 36.9078C30.6936 36.6644 30.0173 36.2969 29.4306 35.8201C28.8439 35.3383 28.3716 34.7373 28.0086 34.0122C27.6456 33.2871 27.4617 32.4328 27.4617 31.4494C27.4617 30.4659 27.76 29.5918 28.3567 28.9014C28.9533 28.211 29.6892 27.6498 30.5543 27.2127C31.4195 26.7806 32.3692 26.4329 33.4034 26.1747C34.4326 25.9164 35.3773 25.7227 36.2325 25.5936C37.0877 25.4644 37.7938 25.375 38.3407 25.3303C38.8926 25.2856 39.1412 25.226 39.0965 25.1565V23.2244C39.0467 22.5688 38.8628 21.9728 38.5346 21.4314C38.2512 20.9844 37.8435 20.5772 37.3015 20.1997C36.7596 19.8272 35.9789 19.6384 34.9447 19.6384C34.0995 19.6384 33.4183 19.7626 32.9062 20.006C32.3891 20.2543 31.9863 20.5374 31.693 20.8652C31.3996 21.193 31.2007 21.5258 31.0963 21.8685C30.9919 22.2062 30.9272 22.4596 30.9024 22.6235H28.476C28.476 22.39 28.5008 22.1417 28.5456 21.8834C28.5903 21.65 28.655 21.3967 28.7395 21.1285C28.824 20.8603 28.9434 20.5722 29.1074 20.2692C29.2964 19.9662 29.5947 19.6782 30.0024 19.41C30.4101 19.1418 30.9024 18.9133 31.4792 18.7246C32.0559 18.5358 32.6774 18.3868 33.3437 18.2676C34.01 18.1484 34.6961 18.0938 35.4022 18.0938L35.4071 18.0987ZM32.9459 31.062C32.9459 31.7424 33.0404 32.3334 33.2293 32.8351C33.4183 33.3367 33.6669 33.7589 33.9851 34.1016C34.3033 34.4393 34.6663 34.6976 35.074 34.8764C35.4817 35.0503 35.9143 35.1397 36.3568 35.1397C36.8242 35.1397 37.2965 35.0105 37.7639 34.7522C38.2313 34.494 38.6788 34.0966 39.1014 33.5553V27.2326C39.1462 27.1879 39.0368 27.1432 38.7683 27.1084C38.4998 27.0737 38.1269 27.0836 37.6595 27.1432C37.1921 27.2028 36.68 27.3021 36.1281 27.4412C35.5762 27.5803 35.069 27.8038 34.5967 28.1067C34.1293 28.4097 33.7365 28.812 33.4183 29.3037C33.1001 29.7954 32.941 30.3815 32.941 31.062H32.9459Z" fill="white"/>
<path d="M58.1994 18.0987C58.8308 18.0987 59.4325 18.208 59.9943 18.4315C60.5562 18.655 61.0633 18.9183 61.5058 19.2212C61.9533 19.5242 62.3163 19.8222 62.5947 20.1152C62.8782 20.4083 63.077 20.6119 63.1914 20.7311L62.4506 21.5407C62.0279 21.2129 61.5953 20.9199 61.1479 20.6616C60.7749 20.4282 60.3623 20.2146 59.9148 20.0308C59.4673 19.8421 59.0596 19.7477 58.6817 19.7477C58.3287 19.7477 57.9359 19.852 57.5033 20.0656C57.0707 20.2742 56.6431 20.5772 56.2205 20.9596C55.7978 21.347 55.405 21.8139 55.0421 22.3652C54.6791 22.9165 54.4007 23.5324 54.2167 24.2078V37.3449H49.4335V18.1633H54.2167V19.6037C54.7537 19.1815 55.3603 18.8239 56.0266 18.5309C56.6928 18.2378 57.4138 18.0938 58.1894 18.0938L58.1994 18.0987ZM63.266 20.7361H63.2312C63.2759 20.6666 63.3008 20.6268 63.3008 20.6119C63.3008 20.597 63.2908 20.6417 63.266 20.7361Z" fill="white"/>
<path d="M86.7891 17.8852C89.3448 17.8852 91.2839 18.5706 92.6115 19.9414C93.9341 21.3122 94.6202 23.2741 94.67 25.827V37.176H89.4989V23.0903C89.4989 21.8486 89.1907 20.8851 88.5692 20.1897C87.9476 19.4993 87.1919 19.1517 86.3019 19.1517C85.5958 19.1517 84.9693 19.3851 84.4224 19.852C83.8705 20.3189 83.4429 20.9645 83.1396 21.784C83.3285 22.4397 83.4429 23.0456 83.4926 23.5919C83.5374 24.1433 83.5622 24.6995 83.5622 25.2608V37.171H78.3912V23.0853C78.3912 21.8436 78.078 20.8801 77.4564 20.1848C76.83 19.4944 76.0692 19.1467 75.1742 19.1467C74.2793 19.1467 73.5434 19.4944 72.892 20.1848C72.2457 20.8751 71.9175 21.8436 71.9175 23.0853V37.2803H67.1343V18.1335H71.9175L71.9523 18.66C72.2805 18.4961 72.6434 18.3669 73.0412 18.2726C73.3942 18.1534 73.792 18.064 74.2395 17.9895C74.682 17.9199 75.1742 17.8852 75.7162 17.8852C77.5658 17.8852 79.2216 18.4961 80.6734 19.7129C81.5634 19.0821 82.5032 18.6202 83.4876 18.3272C84.4721 18.0342 85.5759 17.8901 86.7941 17.8901L86.7891 17.8852Z" fill="white"/>
<path d="M106.24 22.3999C106.24 22.8221 106.166 23.2145 106.011 23.577C105.857 23.9396 105.648 24.2575 105.38 24.5257C105.111 24.7939 104.793 25.0124 104.43 25.1763C104.067 25.3402 103.674 25.4247 103.252 25.4247C102.829 25.4247 102.436 25.3402 102.073 25.1763C101.71 25.0124 101.392 24.7939 101.124 24.5257C100.855 24.2575 100.637 23.9396 100.472 23.577C100.308 23.2145 100.224 22.8221 100.224 22.3999C100.224 21.9777 100.308 21.5854 100.472 21.2228C100.637 20.8602 100.855 20.5423 101.124 20.2741C101.392 20.0059 101.71 19.7924 102.073 19.6434C102.436 19.4894 102.829 19.4149 103.252 19.4149C104.072 19.4149 104.773 19.7079 105.36 20.294C105.947 20.8801 106.24 21.5804 106.24 22.3999ZM106.24 34.0271C106.24 34.4492 106.166 34.8416 106.011 35.2042C105.857 35.5667 105.648 35.8846 105.38 36.1528C105.111 36.421 104.793 36.6396 104.43 36.8035C104.067 36.9674 103.674 37.0518 103.252 37.0518C102.829 37.0518 102.436 36.9674 102.073 36.8035C101.71 36.6396 101.392 36.421 101.124 36.1528C100.855 35.8846 100.637 35.5667 100.472 35.2042C100.308 34.8416 100.224 34.4492 100.224 34.0271C100.224 33.6049 100.308 33.2125 100.472 32.8499C100.637 32.4874 100.855 32.1695 101.124 31.9013C101.392 31.6331 101.71 31.4195 102.073 31.2705C102.436 31.1165 102.829 31.042 103.252 31.042C104.072 31.042 104.773 31.3351 105.36 31.9212C105.947 32.5072 106.24 33.2075 106.24 34.0271Z" fill="white"/>
<path d="M113.798 14.6866C113.047 14.6866 112.411 14.4879 111.879 14.0906C111.351 13.6932 111.088 13.2015 111.088 12.6154C111.088 12.0294 111.351 11.5327 111.879 11.1204C112.406 10.7132 113.047 10.5046 113.798 10.5046C114.549 10.5046 115.23 10.7082 115.767 11.1204C116.304 11.5327 116.577 12.0294 116.577 12.6154C116.577 13.2015 116.309 13.6932 115.767 14.0906C115.225 14.4879 114.568 14.6866 113.798 14.6866ZM116.189 18.1285V37.2753H111.406V18.1285H116.189Z" fill="white"/>
<path d="M130.609 17.8852C133.095 17.8852 134.994 18.5656 136.307 19.9215C137.619 21.2824 138.335 23.2492 138.45 25.822V37.171H133.348V23.1201C133.348 21.8784 133.035 20.9198 132.413 20.2394C131.787 19.5589 131.016 19.2212 130.096 19.2212C129.177 19.2212 128.376 19.5589 127.764 20.2394C127.153 20.9198 126.845 21.8784 126.845 23.1201V37.2803H122.061V18.1335H126.845L126.879 18.5557C127.372 18.3222 127.973 18.1534 128.689 18.0441C129.405 17.9398 130.042 17.8852 130.604 17.8852H130.609Z" fill="white"/>
<path d="M16.0308 0.133985C16.0308 0.133985 13.2016 0.0296833 13.2016 16.2858C13.2016 16.2858 13.2016 18.4066 10.6957 17.8752C8.1897 17.3438 5.14676 16.2809 5.14676 12.1833V8.92016C5.14676 7.41523 5.68872 5.54774 6.23566 4.56929C7.22014 2.79616 10.278 -0.183887 16.0308 0.133985Z" fill="#33A0C9"/>
<path d="M16.0308 0.13401H23.4492C23.4492 0.13401 24.2845 0.13401 24.7121 0.00984126C25.3237 -0.168962 25.6369 2.10581 24.1453 4.98155C22.6536 7.8573 20.4609 7.753 16.7268 7.753C12.9928 7.753 13.5546 7.753 13.5546 7.753C13.5546 7.753 14.0817 0.57605 16.0308 0.129043V0.13401Z" fill="#536E81"/>
<path d="M16.0308 18.0938C16.0308 18.0938 13.2016 17.9895 13.2016 34.2456C13.2016 34.2456 13.2016 37.772 10.6957 37.2406C8.1897 36.7091 5.14676 34.2456 5.14676 30.1431V26.8799C5.14676 25.375 5.68872 23.5075 6.23566 22.5291C7.22511 20.7609 10.283 17.7759 16.0357 18.0987L16.0308 18.0938Z" fill="#33A0C9"/>
<path d="M16.0308 18.0937H23.4492C23.4492 18.0937 24.2845 18.0937 24.7121 17.9696C25.3237 17.7908 25.6369 20.0655 24.1453 22.9413C22.6487 25.822 20.4609 25.7127 16.7268 25.7127C12.9928 25.7127 13.5546 25.7127 13.5546 25.7127C13.5546 25.7127 14.0817 18.5358 16.0308 18.0888V18.0937Z" fill="#536E81"/>
<path d="M4.96279 16.7974H1.36297C1.16251 16.7974 1 16.9598 1 17.16V20.7559C1 20.9562 1.16251 21.1185 1.36297 21.1185H4.96279C5.16325 21.1185 5.32575 20.9562 5.32575 20.7559V17.16C5.32575 16.9598 5.16325 16.7974 4.96279 16.7974Z" fill="#33A0C9"/>
</svg>
