<?xml version="1.0"?>
<svg width="140" height="46" xmlns="http://www.w3.org/2000/svg" xmlns:svg="http://www.w3.org/2000/svg">
 <g class="layer">
  <title>Layer 1</title>
  <path d="m35.41,18.1c1.38,0 2.54,0.09 3.49,0.26c0.95,0.18 1.74,0.4 2.36,0.69c0.63,0.28 1.12,0.6 1.47,0.96c0.35,0.36 0.61,0.73 0.79,1.11c0.17,0.37 0.28,0.75 0.31,1.12c0.03,0.37 0.05,0.7 0.05,0.98l0,14.06l-4.12,0l-0.69,-1.8c-0.75,0.59 -1.58,1.03 -2.5,1.34c-0.91,0.3 -1.81,0.46 -2.71,0.46c-0.82,0 -1.62,-0.13 -2.39,-0.37c-0.78,-0.25 -1.45,-0.61 -2.04,-1.09c-0.59,-0.48 -1.06,-1.08 -1.42,-1.81c-0.36,-0.72 -0.55,-1.58 -0.55,-2.56c0,-0.98 0.3,-1.86 0.9,-2.55c0.59,-0.69 1.33,-1.25 2.19,-1.69c0.87,-0.43 1.82,-0.78 2.85,-1.04c1.03,-0.25 1.98,-0.45 2.83,-0.58c0.86,-0.13 1.56,-0.21 2.11,-0.26c0.55,-0.04 0.8,-0.1 0.76,-0.17l0,-1.94c-0.05,-0.65 -0.24,-1.25 -0.57,-1.79c-0.28,-0.45 -0.69,-0.85 -1.23,-1.23c-0.54,-0.37 -1.32,-0.56 -2.36,-0.56c-0.84,0 -1.52,0.12 -2.03,0.37c-0.52,0.24 -0.92,0.53 -1.22,0.86c-0.29,0.32 -0.49,0.66 -0.59,1c-0.11,0.34 -0.17,0.59 -0.2,0.75l-2.42,0c0,-0.23 0.02,-0.48 0.07,-0.74c0.04,-0.23 0.11,-0.48 0.19,-0.75c0.08,-0.27 0.2,-0.56 0.37,-0.86c0.19,-0.3 0.48,-0.59 0.89,-0.86c0.41,-0.27 0.9,-0.5 1.48,-0.69c0.58,-0.18 1.2,-0.33 1.86,-0.45c0.67,-0.12 1.36,-0.18 2.06,-0.18l0.01,0.01zm-2.46,12.96c0,0.68 0.09,1.27 0.28,1.78c0.19,0.5 0.44,0.92 0.76,1.26c0.31,0.34 0.68,0.6 1.08,0.78c0.41,0.17 0.84,0.26 1.29,0.26c0.46,0 0.94,-0.13 1.4,-0.39c0.47,-0.26 0.92,-0.65 1.34,-1.19l0,-6.33c0.05,-0.04 -0.06,-0.09 -0.33,-0.12c-0.27,-0.04 -0.64,-0.03 -1.11,0.03c-0.47,0.06 -0.98,0.16 -1.53,0.3c-0.55,0.14 -1.06,0.36 -1.53,0.67c-0.47,0.3 -0.86,0.7 -1.18,1.19c-0.32,0.5 -0.48,1.08 -0.48,1.76l0.01,0z" fill="#5e5e5e" id="svg_1"/>
  <path d="m58.2,18.1c0.63,0 1.23,0.11 1.79,0.33c0.57,0.23 1.07,0.49 1.52,0.79c0.44,0.3 0.81,0.6 1.08,0.9c0.29,0.29 0.49,0.49 0.6,0.61l-0.74,0.81c-0.42,-0.33 -0.85,-0.62 -1.3,-0.88c-0.38,-0.23 -0.79,-0.45 -1.24,-0.63c-0.44,-0.19 -0.85,-0.28 -1.23,-0.28c-0.35,0 -0.74,0.1 -1.18,0.32c-0.43,0.2 -0.86,0.51 -1.28,0.89c-0.42,0.39 -0.81,0.85 -1.18,1.41c-0.36,0.55 -0.64,1.16 -0.82,1.84l0,13.13l-4.79,0l0,-19.18l4.79,0l0,1.44c0.53,-0.42 1.14,-0.78 1.81,-1.07c0.66,-0.29 1.38,-0.44 2.16,-0.44l0.01,0.01zm5.07,2.64l-0.04,0c0.05,-0.07 0.07,-0.11 0.07,-0.13c0,-0.01 -0.01,0.03 -0.03,0.13z" fill="#5e5e5e" id="svg_2"/>
  <path d="m86.79,17.89c2.55,0 4.49,0.68 5.82,2.05c1.32,1.37 2.01,3.33 2.06,5.89l0,11.35l-5.17,0l0,-14.09c0,-1.24 -0.31,-2.2 -0.93,-2.9c-0.62,-0.69 -1.38,-1.04 -2.27,-1.04c-0.7,0 -1.33,0.24 -1.88,0.7c-0.55,0.47 -0.98,1.11 -1.28,1.93c0.19,0.66 0.3,1.27 0.35,1.81c0.05,0.55 0.07,1.11 0.07,1.67l0,11.91l-5.17,0l0,-14.08c0,-1.25 -0.31,-2.21 -0.93,-2.91c-0.63,-0.69 -1.39,-1.03 -2.29,-1.03c-0.89,0 -1.63,0.34 -2.28,1.03c-0.64,0.7 -0.97,1.66 -0.97,2.91l0,14.19l-4.79,0l0,-19.15l4.79,0l0.03,0.53c0.33,-0.16 0.69,-0.29 1.09,-0.39c0.35,-0.12 0.75,-0.21 1.2,-0.28c0.44,-0.07 0.93,-0.1 1.48,-0.1c1.85,0 3.5,0.61 4.95,1.82c0.89,-0.63 1.83,-1.09 2.82,-1.38c0.98,-0.3 2.09,-0.44 3.3,-0.44l0,0z" fill="#5e5e5e" id="svg_3"/>
  <path d="m106.24,22.15c0,0.42 -0.07,0.81 -0.23,1.18c-0.15,0.36 -0.36,0.68 -0.63,0.95c-0.27,0.26 -0.59,0.48 -0.95,0.65c-0.36,0.16 -0.76,0.24 -1.18,0.24c-0.42,0 -0.81,-0.08 -1.18,-0.24c-0.36,-0.17 -0.68,-0.39 -0.95,-0.65c-0.26,-0.27 -0.48,-0.59 -0.65,-0.95c-0.16,-0.37 -0.25,-0.76 -0.25,-1.18c0,-0.42 0.09,-0.81 0.25,-1.18c0.17,-0.36 0.39,-0.68 0.65,-0.95c0.27,-0.26 0.59,-0.48 0.95,-0.63c0.37,-0.15 0.76,-0.23 1.18,-0.23c0.82,0 1.52,0.3 2.11,0.88c0.59,0.59 0.88,1.29 0.88,2.11zm0,11.63c0,0.42 -0.07,0.81 -0.23,1.17c-0.15,0.37 -0.36,0.68 -0.63,0.95c-0.27,0.27 -0.59,0.49 -0.95,0.65c-0.36,0.17 -0.76,0.25 -1.18,0.25c-0.42,0 -0.81,-0.08 -1.18,-0.25c-0.36,-0.16 -0.68,-0.38 -0.95,-0.65c-0.26,-0.27 -0.48,-0.58 -0.65,-0.95c-0.16,-0.36 -0.25,-0.75 -0.25,-1.17c0,-0.43 0.09,-0.82 0.25,-1.18c0.17,-0.36 0.39,-0.68 0.65,-0.95c0.27,-0.27 0.59,-0.48 0.95,-0.63c0.37,-0.15 0.76,-0.23 1.18,-0.23c0.82,0 1.52,0.3 2.11,0.88c0.59,0.59 0.88,1.29 0.88,2.11z" fill="#28a3cd" id="svg_4"/>
  <path d="m113.8,14.69c-0.75,0 -1.39,-0.2 -1.92,-0.6c-0.53,-0.4 -0.79,-0.89 -0.79,-1.47c0,-0.59 0.26,-1.09 0.79,-1.5c0.53,-0.41 1.17,-0.62 1.92,-0.62c0.75,0 1.43,0.21 1.97,0.62c0.53,0.41 0.81,0.91 0.81,1.5c0,0.58 -0.27,1.07 -0.81,1.47c-0.55,0.4 -1.2,0.6 -1.97,0.6zm2.39,3.44l0,19.15l-4.78,0l0,-19.15l4.78,0z" fill="#5e5e5e" id="svg_5"/>
  <path d="m130.61,17.89c2.48,0 4.38,0.68 5.7,2.03c1.31,1.36 2.03,3.33 2.14,5.9l0,11.35l-5.1,0l0,-14.05c0,-1.24 -0.32,-2.2 -0.94,-2.88c-0.62,-0.68 -1.39,-1.02 -2.31,-1.02c-0.92,0 -1.72,0.34 -2.34,1.02c-0.61,0.68 -0.92,1.64 -0.92,2.88l0,14.16l-4.78,0l0,-19.15l4.78,0l0.04,0.43c0.49,-0.24 1.09,-0.41 1.81,-0.52c0.72,-0.1 1.35,-0.15 1.91,-0.15l0.01,0z" fill="#5e5e5e" id="svg_6"/>
  <path d="m16.03,0.13c0,0 -2.83,-0.1 -2.83,16.16c0,0 0,2.12 -2.5,1.59c-2.51,-0.54 -5.55,-1.6 -5.55,-5.7l0,-3.26c0,-1.5 0.54,-3.37 1.09,-4.35c0.98,-1.77 4.04,-4.75 9.79,-4.44z" fill="#33A0C9" id="svg_7"/>
  <path d="m16.03,0.13l7.42,0c0,0 0.83,0 1.26,-0.12c0.61,-0.18 0.93,2.1 -0.56,4.97c-1.5,2.88 -3.69,2.77 -7.42,2.77c-3.74,0 -3.18,0 -3.18,0c0,0 0.53,-7.17 2.48,-7.62l0,0z" fill="#536E81" id="svg_8"/>
  <path d="m16.03,18.09c0,0 -2.83,-0.1 -2.83,16.16c0,0 0,3.52 -2.5,2.99c-2.51,-0.53 -5.55,-2.99 -5.55,-7.1l0,-3.26c0,-1.5 0.54,-3.37 1.09,-4.35c0.99,-1.77 4.04,-4.75 9.8,-4.43l-0.01,-0.01z" fill="#33A0C9" id="svg_9"/>
  <path d="m16.03,18.09l7.42,0c0,0 0.83,0 1.26,-0.12c0.61,-0.18 0.93,2.1 -0.56,4.97c-1.5,2.88 -3.69,2.77 -7.42,2.77c-3.74,0 -3.18,0 -3.18,0c0,0 0.53,-7.17 2.48,-7.62l0,0z" fill="#536E81" id="svg_10"/>
  <path d="m4.96,16.8l-3.6,0c-0.2,0 -0.36,0.16 -0.36,0.36l0,3.6c0,0.2 0.16,0.36 0.36,0.36l3.6,0c0.2,0 0.37,-0.16 0.37,-0.36l0,-3.6c0,-0.2 -0.17,-0.36 -0.37,-0.36z" fill="#33A0C9" id="svg_11"/>
 </g>
</svg>