<?xml version="1.0"?>
<svg width="1280" height="1244" xmlns="http://www.w3.org/2000/svg" xmlns:svg="http://www.w3.org/2000/svg" preserveAspectRatio="xMidYMid meet" version="1.0">
 <metadata>Created by potrace 1.15, written by Peter Selinger 2001-2017</metadata>
 <g class="layer">
  <title>Layer 1</title>
  <g fill="#000000" id="svg_1" transform="matrix(0.1 0 0 -0.1 0 0)">
   <path d="m5970,-891c-1601,-81 -3106,-837 -4101,-2059c-603,-740 -992,-1624 -1129,-2561c-68,-462 -68,-1026 0,-1488c226,-1549 1150,-2936 2515,-3776c1116,-686 2447,-972 3755,-805c2037,260 3755,1565 4490,3410c359,901 457,1889 284,2840c-317,1738 -1501,3215 -3169,3955c-817,363 -1734,530 -2645,484z" fill="#33a0c9" id="svg_2"/>
  </g>
 </g>
</svg>