<?xml version="1.0"?>
<svg width="24" height="24" xmlns="http://www.w3.org/2000/svg" xmlns:svg="http://www.w3.org/2000/svg">
 <g class="layer">
  <title>Layer 1</title>
  <path d="m12,14.7l0,2m-5,-6.47c0.47,-0.03 1.05,-0.03 1.8,-0.03l6.4,0c0.75,0 1.33,0 1.8,0.03m-10,0c-0.59,0.03 -1.01,0.12 -1.36,0.3c-0.57,0.28 -1.03,0.74 -1.31,1.31c-0.33,0.64 -0.33,1.48 -0.33,3.16l0,1.4c0,1.68 0,2.52 0.33,3.16c0.28,0.57 0.74,1.03 1.31,1.31c0.64,0.33 1.48,0.33 3.16,0.33l6.4,0c1.68,0 2.52,0 3.16,-0.33c0.57,-0.28 1.03,-0.74 1.31,-1.31c0.33,-0.64 0.33,-1.48 0.33,-3.16l0,-1.4c0,-1.68 0,-2.52 -0.33,-3.16c-0.28,-0.57 -0.74,-1.03 -1.31,-1.31c-0.35,-0.18 -0.77,-0.27 -1.36,-0.3m-10,0l0,-2.03c0,-2.76 2.24,-5 5,-5c2.76,0 5,2.24 5,5l0,2.03" fill="#ffffff" id="svg_1" stroke="#33a0c9" stroke-linecap="round" stroke-linejoin="round" stroke-width="2"/>
 </g>
</svg>