<?xml version="1.0"?>
<svg width="24" height="24" xmlns="http://www.w3.org/2000/svg" xmlns:svg="http://www.w3.org/2000/svg">
 <g class="layer">
  <title>Layer 1</title>
  <path clip-rule="evenodd" d="m14.1,2.39c1.52,-1.52 3.99,-1.52 5.51,0c1.52,1.52 1.52,3.99 0,5.51l-7.6,7.59c-0.42,0.43 -0.68,0.69 -0.98,0.92c-0.34,0.27 -0.71,0.5 -1.1,0.69c-0.34,0.15 -0.69,0.27 -1.26,0.46l-2.67,0.89l-0.65,0.22c-0.57,0.19 -1.2,0.04 -1.63,-0.39c-0.43,-0.43 -0.58,-1.06 -0.39,-1.63l1.11,-3.32c0.19,-0.57 0.31,-0.92 0.46,-1.26c0.19,-0.39 0.42,-0.76 0.69,-1.1c0.23,-0.3 0.49,-0.56 0.92,-0.98l7.59,-7.6zm-8.14,14.49l-0.84,-0.84l0.72,-2.19c0.22,-0.63 0.3,-0.89 0.42,-1.13c0.14,-0.3 0.31,-0.57 0.51,-0.83c0.16,-0.21 0.36,-0.41 0.83,-0.88l5.89,-5.89c0.25,0.61 0.66,1.35 1.35,2.04c0.69,0.69 1.43,1.1 2.04,1.35l-5.89,5.89c-0.47,0.47 -0.67,0.66 -0.88,0.83c-0.26,0.2 -0.53,0.37 -0.83,0.51c-0.24,0.12 -0.5,0.2 -1.13,0.42l-2.19,0.72zm12.12,-9.57c-0.13,-0.02 -0.28,-0.07 -0.46,-0.13c-0.48,-0.16 -1.12,-0.48 -1.72,-1.08c-0.6,-0.6 -0.92,-1.24 -1.08,-1.72c-0.06,-0.18 -0.11,-0.33 -0.13,-0.46l0.47,-0.47c0.94,-0.93 2.45,-0.93 3.39,0c0.93,0.94 0.93,2.45 0,3.39l-0.47,0.47zm-14.83,14.69c0,-0.41 0.34,-0.75 0.75,-0.75l16,0l0,1.5l-16,0c-0.41,0 -0.75,-0.34 -0.75,-0.75z" fill="#33a0c9" fill-rule="evenodd" id="svg_1"/>
 </g>
</svg>