<?xml version="1.0"?>
<svg width="24" height="24" xmlns="http://www.w3.org/2000/svg" xmlns:svg="http://www.w3.org/2000/svg">
 <g class="layer">
  <title>Layer 1</title>
  <path d="m1.28,8.86c1.33,5.28 8.58,12.54 13.86,13.86a8.94,8.94 0 0 0 2.18,0.28a8.54,8.54 0 0 0 4.01,-1a3.11,3.11 0 0 0 0.76,-4.95l0,0l-2.08,-2.09a3.11,3.11 0 0 0 -3.45,-0.65a4.86,4.86 0 0 0 -1.47,0.99c-0.18,0.17 -0.5,0.2 -0.98,0.07a9.98,9.98 0 0 1 -5.48,-5.48c-0.13,-0.48 -0.1,-0.8 0.07,-0.98a4.86,4.86 0 0 0 0.99,-1.47a3.11,3.11 0 0 0 -0.65,-3.45l-2.08,-2.08a3.06,3.06 0 0 0 -2.66,-0.88a3.1,3.1 0 0 0 -2.3,1.64a8.58,8.58 0 0 0 -0.72,6.19zm2.49,-5.26a1.11,1.11 0 0 1 0.83,-0.59a1.04,1.04 0 0 1 0.17,-0.01a1.09,1.09 0 0 1 0.77,0.32l2.09,2.09a1.1,1.1 0 0 1 0.24,1.21a2.9,2.9 0 0 1 -0.58,0.88a2.82,2.82 0 0 0 -0.59,2.9c0.72,2.7 4.21,6.18 6.9,6.9a2.82,2.82 0 0 0 2.91,-0.6a2.91,2.91 0 0 1 0.87,-0.58a1.1,1.1 0 0 1 1.21,0.24l2.09,2.09a1.09,1.09 0 0 1 0.31,0.94a1.11,1.11 0 0 1 -0.59,0.83a6.52,6.52 0 0 1 -4.77,0.55c-4.54,-1.13 -11.27,-7.86 -12.41,-12.4a6.53,6.53 0 0 1 0.55,-4.77z" fill="#33a0c9" id="svg_1"/>
 </g>
</svg>